<svg
                      width={23}
                      height={24}
                      viewBox="0 0 23 24"
                      fill="none"
                      xmlns="http://www.w3.org/2000/svg"
                    >
                      <path
                        d="M3.00684 6H4.89931H20.0391"
                        stroke="#FA0606"
                        strokeWidth={2}
                        strokeLinecap="round"
                        strokeLinejoin="round"
                      />
                      <path
                        d="M7.73812 6V4C7.73812 3.46957 7.93751 2.96086 8.29242 2.58579C8.64732 2.21071 9.12868 2 9.6306 2H13.4155C13.9175 2 14.3988 2.21071 14.7537 2.58579C15.1086 2.96086 15.308 3.46957 15.308 4V6M18.1467 6V20C18.1467 20.5304 17.9473 21.0391 17.5924 21.4142C17.2375 21.7893 16.7562 22 16.2543 22H6.79189C6.28997 22 5.80861 21.7893 5.45371 21.4142C5.0988 21.0391 4.89941 20.5304 4.89941 20V6H18.1467Z"
                        stroke="#FA0606"
                        strokeWidth={2}
                        strokeLinecap="round"
                        strokeLinejoin="round"
                      />
                    </svg>