<svg width="199" height="36" viewBox="0 0 199 36" fill="none" xmlns="http://www.w3.org/2000/svg">
<path d="M18.072 4.728V21.936C18.072 24.6 17.316 26.652 15.804 28.092C14.316 29.532 12.3 30.252 9.756 30.252C7.092 30.252 4.956 29.496 3.348 27.984C1.74 26.472 0.936 24.324 0.936 21.54H7.056C7.056 22.596 7.272 23.4 7.704 23.952C8.136 24.48 8.76 24.744 9.576 24.744C10.32 24.744 10.896 24.504 11.304 24.024C11.712 23.544 11.916 22.848 11.916 21.936V4.728H18.072ZM32.1885 30.288C30.2205 30.288 28.4445 29.868 26.8605 29.028C25.3005 28.188 24.0645 26.988 23.1525 25.428C22.2645 23.868 21.8205 22.044 21.8205 19.956C21.8205 17.892 22.2765 16.08 23.1885 14.52C24.1005 12.936 25.3485 11.724 26.9325 10.884C28.5165 10.044 30.2925 9.624 32.2605 9.624C34.2285 9.624 36.0045 10.044 37.5885 10.884C39.1725 11.724 40.4205 12.936 41.3325 14.52C42.2445 16.08 42.7005 17.892 42.7005 19.956C42.7005 22.02 42.2325 23.844 41.2965 25.428C40.3845 26.988 39.1245 28.188 37.5165 29.028C35.9325 29.868 34.1565 30.288 32.1885 30.288ZM32.1885 24.96C33.3645 24.96 34.3605 24.528 35.1765 23.664C36.0165 22.8 36.4365 21.564 36.4365 19.956C36.4365 18.348 36.0285 17.112 35.2125 16.248C34.4205 15.384 33.4365 14.952 32.2605 14.952C31.0605 14.952 30.0645 15.384 29.2725 16.248C28.4805 17.088 28.0845 18.324 28.0845 19.956C28.0845 21.564 28.4685 22.8 29.2365 23.664C30.0285 24.528 31.0125 24.96 32.1885 24.96ZM52.1224 12.756C52.6984 11.82 53.5264 11.064 54.6064 10.488C55.6864 9.912 56.9224 9.624 58.3144 9.624C59.9704 9.624 61.4704 10.044 62.8144 10.884C64.1584 11.724 65.2144 12.924 65.9824 14.484C66.7744 16.044 67.1704 17.856 67.1704 19.92C67.1704 21.984 66.7744 23.808 65.9824 25.392C65.2144 26.952 64.1584 28.164 62.8144 29.028C61.4704 29.868 59.9704 30.288 58.3144 30.288C56.8984 30.288 55.6624 30.012 54.6064 29.46C53.5504 28.884 52.7224 28.128 52.1224 27.192V30H45.9664V3.36H52.1224V12.756ZM60.9064 19.92C60.9064 18.384 60.4744 17.184 59.6104 16.32C58.7704 15.432 57.7264 14.988 56.4784 14.988C55.2544 14.988 54.2104 15.432 53.3464 16.32C52.5064 17.208 52.0864 18.42 52.0864 19.956C52.0864 21.492 52.5064 22.704 53.3464 23.592C54.2104 24.48 55.2544 24.924 56.4784 24.924C57.7024 24.924 58.7464 24.48 59.6104 23.592C60.4744 22.68 60.9064 21.456 60.9064 19.92ZM78.572 30.288C76.82 30.288 75.26 29.988 73.892 29.388C72.524 28.788 71.444 27.972 70.652 26.94C69.86 25.884 69.416 24.708 69.32 23.412H75.404C75.476 24.108 75.8 24.672 76.376 25.104C76.952 25.536 77.66 25.752 78.5 25.752C79.268 25.752 79.856 25.608 80.264 25.32C80.696 25.008 80.912 24.612 80.912 24.132C80.912 23.556 80.612 23.136 80.012 22.872C79.412 22.584 78.44 22.272 77.096 21.936C75.656 21.6 74.456 21.252 73.496 20.892C72.536 20.508 71.708 19.92 71.012 19.128C70.316 18.312 69.968 17.22 69.968 15.852C69.968 14.7 70.28 13.656 70.904 12.72C71.552 11.76 72.488 11.004 73.712 10.452C74.96 9.9 76.436 9.624 78.14 9.624C80.66 9.624 82.64 10.248 84.08 11.496C85.544 12.744 86.384 14.4 86.6 16.464H80.912C80.816 15.768 80.504 15.216 79.976 14.808C79.472 14.4 78.8 14.196 77.96 14.196C77.24 14.196 76.688 14.34 76.304 14.628C75.92 14.892 75.728 15.264 75.728 15.744C75.728 16.32 76.028 16.752 76.628 17.04C77.252 17.328 78.212 17.616 79.508 17.904C80.996 18.288 82.208 18.672 83.144 19.056C84.08 19.416 84.896 20.016 85.592 20.856C86.312 21.672 86.684 22.776 86.708 24.168C86.708 25.344 86.372 26.4 85.7 27.336C85.052 28.248 84.104 28.968 82.856 29.496C81.632 30.024 80.204 30.288 78.572 30.288ZM109.734 12.864C109.734 14.328 109.398 15.672 108.726 16.896C108.054 18.096 107.022 19.068 105.63 19.812C104.238 20.556 102.51 20.928 100.446 20.928H96.6302V30H90.4742V4.728H100.446C102.462 4.728 104.166 5.076 105.558 5.772C106.95 6.468 107.994 7.428 108.69 8.652C109.386 9.876 109.734 11.28 109.734 12.864ZM99.9782 16.032C101.154 16.032 102.03 15.756 102.606 15.204C103.182 14.652 103.47 13.872 103.47 12.864C103.47 11.856 103.182 11.076 102.606 10.524C102.03 9.972 101.154 9.696 99.9782 9.696H96.6302V16.032H99.9782ZM122.083 30.288C120.115 30.288 118.339 29.868 116.755 29.028C115.195 28.188 113.959 26.988 113.047 25.428C112.159 23.868 111.715 22.044 111.715 19.956C111.715 17.892 112.171 16.08 113.083 14.52C113.995 12.936 115.243 11.724 116.827 10.884C118.411 10.044 120.187 9.624 122.155 9.624C124.123 9.624 125.899 10.044 127.483 10.884C129.067 11.724 130.315 12.936 131.227 14.52C132.139 16.08 132.595 17.892 132.595 19.956C132.595 22.02 132.127 23.844 131.191 25.428C130.279 26.988 129.019 28.188 127.411 29.028C125.827 29.868 124.051 30.288 122.083 30.288ZM122.083 24.96C123.259 24.96 124.255 24.528 125.071 23.664C125.911 22.8 126.331 21.564 126.331 19.956C126.331 18.348 125.923 17.112 125.107 16.248C124.315 15.384 123.331 14.952 122.155 14.952C120.955 14.952 119.959 15.384 119.167 16.248C118.375 17.088 117.979 18.324 117.979 19.956C117.979 21.564 118.363 22.8 119.131 23.664C119.923 24.528 120.907 24.96 122.083 24.96ZM142.017 13.26C142.737 12.156 143.637 11.292 144.717 10.668C145.797 10.02 146.997 9.696 148.317 9.696V16.212H146.625C145.089 16.212 143.937 16.548 143.169 17.22C142.401 17.868 142.017 19.02 142.017 20.676V30H135.861V9.912H142.017V13.26ZM162.455 24.78V30H159.323C157.091 30 155.351 29.46 154.103 28.38C152.855 27.276 152.231 25.488 152.231 23.016V15.024H149.783V9.912H152.231V5.016H158.387V9.912H162.419V15.024H158.387V23.088C158.387 23.688 158.531 24.12 158.819 24.384C159.107 24.648 159.587 24.78 160.259 24.78H162.455ZM164.66 19.92C164.66 17.856 165.044 16.044 165.812 14.484C166.604 12.924 167.672 11.724 169.016 10.884C170.36 10.044 171.86 9.624 173.516 9.624C174.932 9.624 176.168 9.912 177.224 10.488C178.304 11.064 179.132 11.82 179.708 12.756V9.912H185.864V30H179.708V27.156C179.108 28.092 178.268 28.848 177.188 29.424C176.132 30 174.896 30.288 173.48 30.288C171.848 30.288 170.36 29.868 169.016 29.028C167.672 28.164 166.604 26.952 165.812 25.392C165.044 23.808 164.66 21.984 164.66 19.92ZM179.708 19.956C179.708 18.42 179.276 17.208 178.412 16.32C177.572 15.432 176.54 14.988 175.316 14.988C174.092 14.988 173.048 15.432 172.184 16.32C171.344 17.184 170.924 18.384 170.924 19.92C170.924 21.456 171.344 22.68 172.184 23.592C173.048 24.48 174.092 24.924 175.316 24.924C176.54 24.924 177.572 24.48 178.412 23.592C179.276 22.704 179.708 21.492 179.708 19.956ZM196.474 3.36V30H190.318V3.36H196.474Z" fill="#6E00BE"/>
</svg>
